<?xml version="1.0" encoding="UTF-8" standalone="no"?>
<svg
   xmlns:dc="http://purl.org/dc/elements/1.1/"
   xmlns:cc="http://creativecommons.org/ns#"
   xmlns:rdf="http://www.w3.org/1999/02/22-rdf-syntax-ns#"
   xmlns:svg="http://www.w3.org/2000/svg"
   xmlns="http://www.w3.org/2000/svg"
   xmlns:sodipodi="http://sodipodi.sourceforge.net/DTD/sodipodi-0.dtd"
   xmlns:inkscape="http://www.inkscape.org/namespaces/inkscape"
   width="190.64935pt"
   height="43.462009pt"
   viewBox="0 0 190.64935 43.462009"
   version="1.1"
   id="svg2"
   inkscape:version="0.91 r13725"
   sodipodi:docname="Airbus Defense and Space.svg">
  <metadata
     id="metadata2214">
    <rdf:RDF>
      <cc:Work
         rdf:about="">
        <dc:format>image/svg+xml</dc:format>
        <dc:type
           rdf:resource="http://purl.org/dc/dcmitype/StillImage" />
        <dc:title></dc:title>
      </cc:Work>
    </rdf:RDF>
  </metadata>
  <sodipodi:namedview
     pagecolor="#ffffff"
     bordercolor="#666666"
     borderopacity="1"
     objecttolerance="10"
     gridtolerance="10"
     guidetolerance="10"
     inkscape:pageopacity="0"
     inkscape:pageshadow="2"
     inkscape:window-width="1280"
     inkscape:window-height="753"
     id="namedview2212"
     showgrid="false"
     inkscape:zoom="3.5881172"
     inkscape:cx="129.6699"
     inkscape:cy="15.29839"
     inkscape:window-x="-4"
     inkscape:window-y="-4"
     inkscape:window-maximized="1"
     inkscape:current-layer="svg2"
     fit-margin-top="0"
     fit-margin-left="0"
     fit-margin-right="0"
     fit-margin-bottom="0" />
  <defs
     id="defs4" />
  <path
     style="clip-rule:nonzero;fill:#ffffff;fill-opacity:1;fill-rule:nonzero;stroke:none"
     d="m 29.836901,5.118169 c -6.82421,-6.82422 -17.89062,-6.82422 -24.7187495,0 -6.8242102,6.82812 -6.8242102,17.89062 0,24.718751 6.8281295,6.82812 17.8945395,6.82812 24.7187495,0 6.82813,-6.828131 6.82422,-17.890631 0,-24.718751"
     id="path330-8"
     inkscape:connector-curvature="0"
     sodipodi:nodetypes="ccccc" />
  <path
     style="clip-rule:nonzero;fill:#12285f;fill-opacity:1;fill-rule:nonzero;stroke:none"
     d="m 46.6025,41.68072 c 0.84766,0 1.54297,-0.32422 2.08594,-0.97266 0.54687,-0.64453 0.82031,-1.47656 0.82031,-2.49218 0,-1.07813 -0.29297,-1.94922 -0.87891,-2.60938 -0.58593,-0.66406 -1.35156,-0.99219 -2.29687,-0.99219 l -4.09375,0 0,7.06641 z m -0.38672,-8.57031 c 1.48047,0 2.65234,0.46484 3.51953,1.39843 0.86719,0.9336 1.30078,2.1836 1.30078,3.75 0,1.4375 -0.46093,2.63282 -1.375,3.58985 -0.85547,0.89062 -1.91406,1.33594 -3.17578,1.33594 l -5.65625,0 0,-10.07422 z"
     id="path304"
     inkscape:connector-curvature="0" />
  <path
     style="clip-rule:nonzero;fill:#12285f;fill-opacity:1;fill-rule:nonzero;stroke:none"
     d="m 61.79,43.18463 -8.91406,0 0,-10.07422 8.58593,0 0,1.5039 -7.17578,0 0,2.58594 4.98828,0 0,1.50391 -4.98828,0 0,2.97656 7.50391,0 z"
     id="path306"
     inkscape:connector-curvature="0" />
  <path
     style="clip-rule:nonzero;fill:#12285f;fill-opacity:1;fill-rule:nonzero;stroke:none"
     d="m 72.56734,34.61431 -7.17578,0 0,2.58594 4.98828,0 0,1.50391 -4.98828,0 0,4.48047 -1.41015,0 0,-10.07422 8.58593,0 z"
     id="path308"
     inkscape:connector-curvature="0" />
  <path
     style="clip-rule:nonzero;fill:#12285f;fill-opacity:1;fill-rule:nonzero;stroke:none"
     d="m 83.13766,43.18463 -8.91407,0 0,-10.07422 8.58594,0 0,1.5039 -7.17187,0 0,2.58594 4.98437,0 0,1.50391 -4.98437,0 0,2.97656 7.5,0 z"
     id="path310"
     inkscape:connector-curvature="0" />
  <path
     style="clip-rule:nonzero;fill:#12285f;fill-opacity:1;fill-rule:nonzero;stroke:none"
     d="m 94.87203,43.18463 -1.75781,0 -6.5,-8.26172 0,8.26172 -1.41016,0 0,-10.07422 1.75391,0 6.5,8.26562 0,-8.26562 1.41406,0 z"
     id="path312"
     inkscape:connector-curvature="0" />
  <path
     style="clip-rule:nonzero;fill:#12285f;fill-opacity:1;fill-rule:nonzero;stroke:none"
     d="m 107.02047,35.40728 -1.28125,0.54297 c -0.86328,-1.08594 -2.07031,-1.62891 -3.625,-1.62891 -1.17578,0 -2.13281,0.35547 -2.875,1.07032 -0.73828,0.71484 -1.10938,1.625 -1.10938,2.72656 0,1.14062 0.36719,2.0625 1.09766,2.76172 0.73437,0.70312 1.72266,1.05078 2.97266,1.05078 1.5039,0 2.6875,-0.55078 3.55078,-1.65625 l 1.21093,0.79297 c -0.61328,0.84375 -1.30468,1.45312 -2.07812,1.83203 -0.76953,0.375 -1.69531,0.5625 -2.76953,0.5625 -1.50391,0 -2.75391,-0.44531 -3.75,-1.33594 -1.14063,-1.01953 -1.70703,-2.35547 -1.70703,-4.00781 0,-1.62109 0.57812,-2.94922 1.73047,-3.97656 1.0039,-0.90235 2.24609,-1.35157 3.72656,-1.35157 2.13281,0 3.76953,0.8711 4.90625,2.61719"
     id="path314"
     inkscape:connector-curvature="0" />
  <path
     style="clip-rule:nonzero;fill:#12285f;fill-opacity:1;fill-rule:nonzero;stroke:none"
     d="m 117.84859,43.18463 -8.91406,0 0,-10.07422 8.58594,0 0,1.5039 -7.17578,0 0,2.58594 4.98828,0 0,1.50391 -4.98828,0 0,2.97656 7.5039,0 z"
     id="path316"
     inkscape:connector-curvature="0" />
  <path
     style="clip-rule:nonzero;fill:#12285f;fill-opacity:1;fill-rule:nonzero;stroke:none"
     d="m 126.62984,37.00494 c 1.08985,-0.15625 1.63282,-0.6836 1.63282,-1.58594 0,-0.29687 -0.0899,-0.55078 -0.27344,-0.75781 -0.1875,-0.20703 -0.41797,-0.3125 -0.70313,-0.3125 -0.32031,0 -0.58203,0.12109 -0.78515,0.35937 -0.20703,0.24219 -0.30469,0.55469 -0.30469,0.9336 0,0.38281 0.14453,0.83593 0.43359,1.36328 m 1.4336,4.21875 c -0.73047,-0.78125 -1.40235,-1.65625 -2.02344,-2.62891 -1.55859,0.28516 -2.33984,0.88672 -2.33984,1.80469 0,0.44531 0.1914,0.8125 0.57812,1.09375 0.38281,0.28125 0.90625,0.42578 1.57422,0.42578 0.65234,0 1.39062,-0.23437 2.21094,-0.69531 m 4.09375,2 c -1.09766,-0.0625 -2.12891,-0.39844 -3.09375,-1 -0.94141,0.76172 -2.0586,1.14062 -3.35157,1.14062 -1.01953,0 -1.84765,-0.28906 -2.48046,-0.86328 -0.63672,-0.57422 -0.95313,-1.29297 -0.95313,-2.15625 0,-1.46484 0.98828,-2.47656 2.96484,-3.03125 -0.29296,-0.54687 -0.4375,-1.10547 -0.4375,-1.67187 0,-0.56641 0.15235,-1.07813 0.46094,-1.54297 0.50781,-0.78125 1.19922,-1.16797 2.06641,-1.16797 0.68359,0 1.23828,0.23437 1.66797,0.69922 0.42578,0.47265 0.63672,1.07812 0.63672,1.83203 0,1.32812 -0.73438,2.24219 -2.20704,2.75391 0.51563,0.78125 1.08204,1.48046 1.70313,2.10156 0.48047,-0.44531 0.88672,-1.24219 1.22266,-2.39453 l 1.44531,0 c -0.3125,1.21875 -0.85938,2.30078 -1.64453,3.25781 0.63281,0.33203 1.30078,0.5 2,0.5 z"
     id="path318"
     inkscape:connector-curvature="0" />
  <path
     style="clip-rule:nonzero;fill:#12285f;fill-opacity:1;fill-rule:nonzero;stroke:none"
     d="m 145.65719,35.47369 c -1.26172,-0.75781 -2.54688,-1.14063 -3.85547,-1.14063 -0.8711,0 -1.53906,0.1211 -2,0.36328 -0.46485,0.24219 -0.69531,0.57422 -0.69531,1.00391 0,0.44141 0.24609,0.76953 0.74218,0.97266 0.35157,0.14843 0.92969,0.25 1.72657,0.30468 1.17578,0.0937 1.95312,0.16797 2.32812,0.22266 1.07031,0.16797 1.85547,0.47656 2.36719,0.93359 0.50781,0.45313 0.76172,1.09766 0.76172,1.9336 0,1.0664 -0.39844,1.89062 -1.19922,2.47656 -0.80078,0.58203 -1.94531,0.875 -3.44531,0.875 -2.17188,0 -3.85938,-0.56641 -5.06641,-1.69531 l 0.77344,-1.21094 c 1.33593,0.96484 2.76953,1.44531 4.30468,1.44531 0.9961,0 1.76954,-0.16015 2.31641,-0.48437 0.52734,-0.31641 0.78906,-0.75 0.78906,-1.29688 0,-0.63672 -0.34375,-1.0664 -1.03515,-1.27734 -0.35938,-0.11328 -1.33203,-0.23047 -2.91407,-0.34766 -1.40625,-0.11328 -2.39062,-0.33593 -2.95312,-0.66797 -0.66016,-0.39062 -0.98828,-1.04687 -0.98828,-1.96484 0,-0.94531 0.375,-1.69141 1.12109,-2.23828 0.75,-0.54688 1.80469,-0.82031 3.17188,-0.82031 1.83203,0 3.37109,0.49609 4.60937,1.48828 z"
     id="path320"
     inkscape:connector-curvature="0" />
  <path
     style="clip-rule:nonzero;fill:#12285f;fill-opacity:1;fill-rule:nonzero;stroke:none"
     d="m 155.67281,37.84088 c 1.08985,0 1.63281,-0.51954 1.63281,-1.5586 0,-1.11328 -0.57421,-1.66797 -1.72656,-1.66797 l -5,0 0,3.22657 z m 0.2461,-4.73047 c 0.87109,0 1.55859,0.28515 2.07031,0.85547 0.50781,0.57031 0.76562,1.33593 0.76562,2.28906 0,1 -0.26562,1.76562 -0.79687,2.29687 -0.52735,0.52735 -1.29688,0.79297 -2.3086,0.79297 l -5.07031,0 0,3.83985 -1.41015,0 0,-10.07422 z"
     id="path322"
     inkscape:connector-curvature="0" />
  <path
     style="clip-rule:nonzero;fill:#12285f;fill-opacity:1;fill-rule:nonzero;stroke:none"
     d="m 165.915,39.42681 -2.16797,-4.8789 -2.19531,4.8789 z m 3.21094,3.75782 -1.54297,0 -0.98438,-2.25391 -5.73437,0 -0.98047,2.25391 -1.54297,0 4.50391,-10.07422 1.77734,0 z"
     id="path324"
     inkscape:connector-curvature="0" />
  <path
     style="clip-rule:nonzero;fill:#12285f;fill-opacity:1;fill-rule:nonzero;stroke:none"
     d="m 179.89156,35.40728 -1.28515,0.54297 c -0.85938,-1.08594 -2.07032,-1.62891 -3.6211,-1.62891 -1.17578,0 -2.13281,0.35547 -2.875,1.07032 -0.73828,0.71484 -1.10937,1.625 -1.10937,2.72656 0,1.14062 0.36328,2.0625 1.09765,2.76172 0.73438,0.70312 1.72266,1.05078 2.96875,1.05078 1.50782,0 2.6875,-0.55078 3.55078,-1.65625 l 1.21094,0.79297 c -0.60937,0.84375 -1.30078,1.45312 -2.07422,1.83203 -0.76953,0.375 -1.69531,0.5625 -2.76953,0.5625 -1.5039,0 -2.7539,-0.44531 -3.75,-1.33594 -1.13672,-1.01953 -1.70703,-2.35547 -1.70703,-4.00781 0,-1.62109 0.57813,-2.94922 1.73047,-3.97656 1.00391,-0.90235 2.24609,-1.35157 3.72656,-1.35157 2.13281,0 3.76563,0.8711 4.90625,2.61719"
     id="path326"
     inkscape:connector-curvature="0" />
  <path
     style="clip-rule:nonzero;fill:#12285f;fill-opacity:1;fill-rule:nonzero;stroke:none"
     d="m 190.64937,43.18463 -8.91406,0 0,-10.07422 8.58594,0 0,1.5039 -7.17578,0 0,2.58594 4.98437,0 0,1.50391 -4.98437,0 0,2.97656 7.5039,0 z"
     id="path328"
     inkscape:connector-curvature="0" />
  <path
     style="clip-rule:nonzero;fill:#12285f;fill-opacity:1;fill-rule:nonzero;stroke:none"
     d="m 22.75875,28.81353 c -1.07031,0.41406 -2.52734,0.64453 -4.09375,0.64453 -0.98438,0 -1.92578,-0.0937 -2.73047,-0.26562 C 13.20797,28.6065 10.98141,27.10259 9.54,24.87213 8.04,22.544 7.65719,19.669 8.51656,17.18072 c 0.85938,-2.47656 2.51953,-4.31641 4.67578,-5.05078 0.25391,-0.0859 0.52735,-0.15625 0.83594,-0.21875 0.0273,-0.004 0.51563,-0.0625 0.58594,-0.004 0.14062,0.125 -0.1211,0.23828 -0.20313,0.29297 -0.082,0.0508 -0.44531,0.26953 -0.67968,0.44141 -0.98047,0.72265 -1.64454,1.68359 -2.1836,2.78125 -0.62109,1.26172 -0.80469,2.67187 -0.64062,3.97265 0.15234,1.25391 0.64843,2.53125 1.53515,3.63672 1.06641,1.32813 2.4375,2.11328 4.01172,2.46094 0.875,0.19141 1.61328,0.30078 2.3711,0.30078 0.57031,0 1.18359,-0.0742 1.93359,-0.23437 2.09766,-0.45704 4.05859,-1.57813 5.53906,-3.66797 1.53906,-2.17188 2.07422,-5.05469 1.63672,-7.56641 -0.0117,-0.0625 -0.0234,-0.125 -0.0312,-0.1875 -0.043,-0.25781 -0.0859,-0.51953 -0.17187,-0.76172 C 27.36817,12.14938 26.96583,11.18063 26.46192,10.32516 25.81349,9.2275 24.99317,8.25094 24.03224,7.415 22.06349,5.71579 19.73536,4.87204 16.93849,4.58297 c -1.1836,-0.12109 -2.29688,-0.0859 -3.45703,0.0625 -0.53516,0.0703 -1.00782,0.15235 -1.44922,0.25 l -0.48047,0.11328 c -0.0977,0.0195 -0.16016,-0.0508 -0.17188,-0.11718 -0.004,-0.0234 -0.008,-0.10938 0.0859,-0.14063 1.95313,-0.66797 3.68359,-1.01953 5.47656,-1.01953 0.39063,0 0.78125,0.0195 1.16407,0.0508 2.74609,0.22266 5.01171,0.92188 7.10546,2.48828 3.59375,2.6875 5.61719,6.78516 5.41016,10.96485 -0.27734,5.55859 -3.14062,9.75 -7.86328,11.57812 M 15.1611,13.08299 c 2.03907,-1.34375 4.78516,-0.77734 6.12891,1.26172 1.34375,2.04297 0.77734,4.78906 -1.26172,6.12891 -2.04297,1.34375 -4.78516,0.78125 -6.12891,-1.26172 -1.34375,-2.04297 -0.78125,-4.78516 1.26172,-6.12891 m 6.0625,18.10547 c -0.35156,0.0664 -0.69922,0.125 -1.04687,0.17578 -1.39453,0.1875 -2.8125,0.23047 -4.21094,0.0781 -2.48828,-0.26563 -4.9375,-1.14453 -6.96875,-2.625 -3.75,-2.73438 -5.82031,-7.58985 -5.13281,-12.19141 0.35937,-2.40625 1.48437,-4.67578 3.14844,-6.44531 1.6914,-1.79297 3.91796,-2.94531 6.30468,-3.51953 2.625,-0.63281 5.46094,-0.3711 7.8711,0.89453 2.0039,1.05469 3.52343,2.40234 4.51953,4.77344 0.75781,1.80078 0.92969,3.89453 0.5039,5.80078 -0.48437,2.16797 -1.78515,4.0625 -3.69531,5.21484 -2.02344,1.22266 -4.8125,1.41016 -6.96484,0.41016 -1.06641,-0.49219 -1.97656,-1.26563 -2.61328,-2.25781 -0.32813,-0.50782 -0.57813,-1.0586 -0.70313,-1.64844 -0.0625,-0.28516 -0.10156,-0.57422 -0.12109,-0.83203 -0.008,-0.0899 -0.0274,-0.41016 0.0469,-0.48438 0.0937,-0.0976 0.16797,0.0234 0.19141,0.10547 0.0859,0.35547 0.19531,0.66406 0.30859,0.90234 0.125,0.26172 0.27735,0.50391 0.45313,0.73438 0.33984,0.44141 0.70312,0.83203 1.16015,1.15234 0.92969,0.65625 2.04688,1.04297 3.17969,1.07032 2.60547,0.0547 4.44531,-1.04297 5.48828,-3.28125 0.9375,-2.01172 0.6836,-4.4336 -0.375,-6.34766 -1.21093,-2.18359 -3.25,-3.54688 -5.96093,-3.86328 -2.48047,-0.28906 -5.03907,0.35937 -7.03516,1.83594 -1.95703,1.44531 -3.33594,3.58593 -3.84766,5.96093 -0.53515,2.45313 -0.14843,5.05469 0.9336,7.30469 1.03515,2.15234 2.71093,3.92188 4.78125,5.10547 2.26953,1.29687 4.89843,1.88672 7.5,1.90234 0.70703,0 1.41406,-0.0508 2.12109,-0.12109 0.18359,-0.0156 0.40625,-0.0625 0.41797,0.0625 0.004,0.0742 -0.0977,0.10547 -0.25391,0.13281 M 29.83691,5.11812 c -6.82421,-6.82422 -17.89062,-6.82422 -24.71875,0 -6.82421,6.82812 -6.82421,17.89062 0,24.71875 6.82813,6.82812 17.89454,6.82812 24.71875,0 6.82813,-6.82813 6.82422,-17.89063 0,-24.71875"
     id="path330"
     inkscape:connector-curvature="0" />
  <path
     style="clip-rule:nonzero;fill:#12285f;fill-opacity:1;fill-rule:nonzero;stroke:none"
     d="m 107.66109,23.57916 -7.28906,0 0,-4.08985 7.28906,0 c 1.19922,0.0195 2.16797,0.91407 2.16797,2.03516 0,1.11719 -0.97265,2.05469 -2.16797,2.05469 m -7.28906,-11.99219 7.16016,0 c 0.98047,0.0117 1.80859,0.76562 1.80859,1.75391 0,0.98828 -0.86719,1.77734 -1.85156,1.76562 l -7.11719,0 z m 11.40625,5.71875 c 1.34375,-0.94922 1.85156,-2.51953 1.85156,-4.25 0,-3.25 -2.73437,-5.85547 -6.09375,-5.85547 l -12.16015,0 0,20.76172 12.64062,0 0,0.008 c 3.54688,0 6.50391,-2.74219 6.50391,-6.08984 0,-2.1875 -1.31641,-3.80469 -2.74219,-4.57422 m 18.75391,-10.15234 0,11.67187 c 0,3.56641 -2.08203,5.06641 -4.64844,5.06641 -2.56641,0 -4.63281,-1.49219 -4.63281,-5.0625 l 0,-11.67578 -5.17578,0 0,11.70703 c 0,7.46484 4.38671,9.64062 9.8125,9.64062 5.42187,0 9.8164,-2.17578 9.8164,-9.64062 l 0,-11.70703 z m 18.16015,8.08984 c -4.1875,-0.91016 -5.60547,-1.3125 -5.60547,-2.64063 0,-1.17187 1.51954,-1.76171 3.91407,-1.76171 2.25781,0 4.98828,0.96484 6.59375,1.92578 l 1.63281,-4.22657 c -2.42969,-1.00781 -5.35156,-1.97656 -9.21484,-1.97656 -5.06641,0 -8.23047,2.96094 -8.23047,6.58203 0,3.6211 2.60547,5.21485 7.76953,6.3086 4.00781,0.84765 5.09375,1.35547 5.09375,2.60156 0,1.24609 -1.60938,1.70703 -3.77735,1.70703 -2.8125,0 -5.51171,-0.9375 -8.0625,-2.03125 l -1.53906,4.11719 c 3.04688,1.41406 6.20703,2.54687 9.97656,2.54687 6.28125,0 8.83985,-3.0039 8.83985,-6.5 0,-3.11328 -2.15625,-5.51172 -7.39063,-6.65234 m -97.375,-8.04297 -10.48828,20.75781 6.22656,0.004 1.56641,-3.33984 7.15625,0 -2.22266,-4.54688 -2.82812,0 2.66016,-5.67578 6.70312,13.5625 6.24219,0 L 55.43844,7.20053 Z m 42.14063,6.90234 c 0,-3.78125 -2.58985,-6.84765 -7.92578,-6.84765 l -10.77344,0 0,20.76172 4.99609,-0.004 -0.004,-16.375 6.125,0 c 1.8125,0.004 2.5664,1.12109 2.5664,2.45313 0,1.33593 -0.79297,2.40625 -2.60156,2.40625 l -4.28516,0 6.48047,11.51562 5.125,0 c 0,0 -4.43359,-7.52344 -4.41015,-7.52734 3.20312,-0.9961 4.70703,-3.42578 4.70703,-6.38282 m -26.05469,13.86719 5.16406,0 0,-20.75781 -5.16406,0 z"
     id="path332"
     inkscape:connector-curvature="0" />
</svg>
